<svg width="38" height="40" xmlns="http://www.w3.org/2000/svg">

 <g>
  <title>background</title>
  <rect fill="none" id="canvas_background" height="42" width="40" y="-1" x="-1"/>
 </g>
 <g>
  <title>Layer 1</title>
  <g stroke="null" id="svg_7">
   <g stroke="null" id="svg_8">
    <path stroke="null" id="svg_1" fill="#1A1A1A" d="m18.672282,2.098485c-10.296185,0 -18.672282,8.376999 -18.672282,18.672282s8.376097,18.672282 18.672282,18.672282s18.672282,-8.376996 18.672282,-18.672282s-8.376097,-18.672282 -18.672282,-18.672282zm0,35.779127c-9.433706,0 -17.106846,-7.674981 -17.106846,-17.106846s7.673139,-17.106827 17.106846,-17.106827c9.432767,0 17.106846,7.674966 17.106846,17.106827s-7.674079,17.106846 -17.106846,17.106846z"/>
    <rect stroke="null" id="svg_2" y="19.674834" x="6.678432" width="3.271295" height="1.592805" fill="#1A1A1A"/>
    <rect stroke="null" id="svg_3" y="8.696671" x="17.876347" width="1.592772" height="3.270374" fill="#1A1A1A"/>
    <rect stroke="null" id="svg_4" y="29.413941" x="17.876347" width="1.592772" height="3.268588" fill="#1A1A1A"/>
    <path stroke="null" id="svg_5" fill="#1A1A1A" d="m20.695425,20.689582c0,-1.115038 -0.908989,-2.021302 -2.023144,-2.021302c-0.281715,0 -0.547039,0.057451 -0.78864,0.158644l-4.09915,-5.270734l-0.983767,0.765852l4.144736,5.328167c-0.185994,0.305438 -0.295403,0.658289 -0.295403,1.039373c0,1.115963 0.907166,2.023144 2.022223,2.023144c0.425787,0 0.817816,-0.133132 1.144234,-0.360142l6.082176,3.394388l0.604453,-1.087688l-5.927166,-3.307763c0.071136,-0.209717 0.119447,-0.429437 0.119447,-0.661938zm-2.023144,1.092273c-0.602645,0 -1.091334,-0.489609 -1.091334,-1.092273c0,-0.600822 0.488689,-1.090432 1.091334,-1.090432c0.601743,0 1.090432,0.489609 1.090432,1.090432c0,0.602664 -0.488689,1.092273 -1.090432,1.092273z"/>
    <rect stroke="null" id="svg_6" y="19.674834" x="27.393934" width="3.271258" height="1.592805" fill="#1A1A1A"/>
   </g>
   <ellipse stroke="#00bf5f" ry="8.299531" rx="8.818251" id="svg_9" cy="8.519542" cx="28.801693" stroke-width="NaN" fill="#ff0000"/>
  </g>
 </g>
</svg>